<?xml version="1.0" standalone="no"?><!DOCTYPE svg PUBLIC "-//W3C//DTD SVG 1.1//EN" "http://www.w3.org/Graphics/SVG/1.1/DTD/svg11.dtd"><svg t="1514884412375" class="icon" style="" viewBox="0 0 1024 1024" version="1.1" xmlns="http://www.w3.org/2000/svg" p-id="3312" xmlns:xlink="http://www.w3.org/1999/xlink" width="200" height="200"><defs><style type="text/css"></style></defs><path d="M674.72 168.96c7.456 29.952 8.192 32.448 7.488 63.2-0.288 11.872-7.072 66.688-5.248 83.52 1.536 13.856 4.992 14.976 10.464 26.4 9.504 19.904 6.336 47.328 2.656 67.392-1.984 10.976-6.24 26.592-12.64 35.552-7.072 9.888-21.248 9.952-27.488 21.472-9.024 16.576-3.936 39.872-9.632 57.792-6.464 20.32-22.944 21.728-24.16 48.32 8.064 1.12 16.128 2.304 24.16 3.424 8.096 17.152 22.88 51.712 37.984 62.112 12.64 3.456 25.312 6.912 37.952 10.368 44.352 18.176 93.632 39.936 138.08 58.688 40.48 17.088 88.928 23.168 103.552 65.6 0 28.8 2.72 96.864 1.984 134.624L78.208 907.424c-0.736-37.76 1.952-105.824 1.952-134.624 14.624-42.432 63.104-48.512 103.552-65.6 44.448-18.752 93.728-40.48 138.08-58.688 12.64-3.424 25.312-6.912 37.984-10.368 15.104-10.4 29.888-44.96 37.952-62.112l17.984-4.384c-4.064-22.688-18.144-24.448-23.968-40.512-2.304-24.16-4.576-48.352-6.88-72.512 0.096 1.152-16.544-3.04-18.72-4.384-23.424-14.688-23.904-74.368-26.144-99.168-1.024-11.36 14.72-20.64 10.368-41.44-25.696-121.76 11.104-178.752 69.28-197.632 40.384-16.384 115.808-46.688 186.176-3.424l17.44 16.16 28.256 4.896C665.664 141.856 674.72 168.96 674.72 168.96z" p-id="3313"></path></svg>