<?xml version="1.0" standalone="no"?><!DOCTYPE svg PUBLIC "-//W3C//DTD SVG 1.1//EN" "http://www.w3.org/Graphics/SVG/1.1/DTD/svg11.dtd"><svg t="1532485250466" class="icon" style="" viewBox="0 0 1024 1024" version="1.1" xmlns="http://www.w3.org/2000/svg" p-id="1964" xmlns:xlink="http://www.w3.org/1999/xlink" width="200" height="200"><defs><style type="text/css"></style></defs><path d="M544 64C279.04 64 64 279.04 64 544S279.04 1024 544 1024c264.96 0 480-215.04 480-480S808.96 64 544 64zM759.04 758.4c-12.8 12.8-33.28 12.8-45.44 0L542.08 585.6l-174.08 172.16c-12.8 12.8-33.28 12.8-46.08 0-12.8-12.8-12.8-33.28 0-45.44l174.72-172.8L331.52 374.4c-12.8-12.8-12.8-33.28 0-45.44 12.8-12.8 33.28-12.8 45.44 0l165.12 165.76 167.68-165.76c12.8-12.8 33.28-12.8 46.08 0 12.8 12.8 12.8 33.28 0 45.44l-168.32 166.4 170.88 172.16C771.2 725.12 771.2 745.6 759.04 758.4z" p-id="1965"></path></svg>