<?xml version="1.0" standalone="no"?><!DOCTYPE svg PUBLIC "-//W3C//DTD SVG 1.1//EN" "http://www.w3.org/Graphics/SVG/1.1/DTD/svg11.dtd"><svg t="1514173802910" class="icon" style="" viewBox="0 0 1024 1024" version="1.1" xmlns="http://www.w3.org/2000/svg" p-id="28719" xmlns:xlink="http://www.w3.org/1999/xlink" width="200" height="200"><defs><style type="text/css"></style></defs><path d="M900.847807 164.032377l-736.764265 0c-43.182572 0-78.281203 35.098631-78.281203 78.281203l0 512.767463c0 43.182572 35.098631 78.281203 78.281203 78.281203l673.934646 0c23.330868 0 43.898871-14.121315 52.187469-36.019586 8.288598-21.898271 2.353553-46.047767-15.144599-61.601679L665.390227 549.298691c-26.810033-23.84251-66.206455-26.503048-95.881683-6.344359l-48.196662 32.64275c-4.297792 2.967523-10.130509 2.455881-13.916658-1.125612L359.735385 434.793245c-29.163585-27.526332-74.188068-28.651944-104.784251-2.455881l-67.229739 58.224843c-13.916658 12.074748-15.451584 33.25672-3.376836 47.275707 12.074748 14.018987 33.25672 15.553912 47.275707 3.376836l67.127411-58.020186c4.40012-3.683821 10.744479-3.479165 14.939942 0.409313l147.659838 139.678225c26.810033 25.377436 67.025082 28.651944 97.621265 7.879285l48.196662-32.64275c4.297792-2.865194 9.823524-2.455881 13.712002 0.920955l187.670231 166.795243L164.083542 766.234836c-6.139702 0-11.153792-5.01409-11.153792-11.153792L152.929749 242.31358c0-6.139702 5.01409-11.153792 11.153792-11.153792l736.764265 0c6.139702 0 11.153792 5.01409 11.153792 11.153792l0 451.472769c0 18.521435 15.04227 33.563705 33.563705 33.563705s33.563705-15.04227 33.563705-33.563705L979.12901 242.31358C979.12901 199.131008 944.030379 164.032377 900.847807 164.032377z" p-id="28720"></path><path d="M621.696013 365.312281c0 49.424603 40.215049 89.639652 89.639652 89.639652 49.424603 0 89.639652-40.215049 89.639652-89.639652 0-49.424603-40.215049-89.639652-89.639652-89.639652S621.696013 315.887679 621.696013 365.312281zM751.346058 365.41461c0 22.102928-17.907465 40.010393-40.010393 40.010393-22.102928 0-40.010393-17.907465-40.010393-40.010393 0-22.102928 17.907465-40.010393 40.010393-40.010393C733.233936 325.404217 751.141401 343.311682 751.346058 365.41461z" p-id="28721"></path></svg>