<?xml version="1.0" standalone="no"?><!DOCTYPE svg PUBLIC "-//W3C//DTD SVG 1.1//EN" "http://www.w3.org/Graphics/SVG/1.1/DTD/svg11.dtd"><svg t="1523412337676" class="icon" style="" viewBox="0 0 1024 1024" version="1.1" xmlns="http://www.w3.org/2000/svg" p-id="2322" xmlns:xlink="http://www.w3.org/1999/xlink" width="200" height="200"><defs><style type="text/css"></style></defs><path d="M735.968 800L288 800.256V672h447.968v128zM288 223.744L288.032 224 736 223.744 735.968 608H288V223.744zM735.968 160H288.032A63.968 63.968 0 0 0 224 223.744v576.512C224 835.392 252.704 864 288.032 864h447.936A63.968 63.968 0 0 0 800 800.256V223.744A63.968 63.968 0 0 0 735.968 160z" p-id="2323"></path><path d="M480 768h64a32 32 0 0 0 0-64h-64a32 32 0 0 0 0 64" p-id="2324"></path></svg>