<?xml version="1.0" standalone="no"?><!DOCTYPE svg PUBLIC "-//W3C//DTD SVG 1.1//EN" "http://www.w3.org/Graphics/SVG/1.1/DTD/svg11.dtd"><svg t="1531366617864" class="icon" style="" viewBox="0 0 1024 1024" version="1.1" xmlns="http://www.w3.org/2000/svg" p-id="3421" xmlns:xlink="http://www.w3.org/1999/xlink" width="200" height="200"><defs><style type="text/css"></style></defs><path d="M352.7 78.7c-44.3 11.4-86.3 30.6-124.2 58.4l204.1 204.1-91.3 91.3-204.1-204.1c-27.8 37.9-47 79.9-58.4 124.2-34.2 129.2-1.4 272.5 100 373.9 101.3 101.3 244.7 134.2 373.9 100l75.3 75.3c75.3 75.3 198.1 75.8 273.9 0 75.3-75.3 75.3-198.6 0-273.9l-75.3-75.3c34.2-129.2 1.4-272.5-100-373.9C625.2 77.3 481.8 44.4 352.7 78.7z m357.9 357.9c2.7 51.1-9.1 102.3-35.6 147l135.6 135.6c25.1 25.1 25.1 66.2 0 91.3-25.1 25.1-66.2 25.1-91.3 0L583.6 674.9c-45.2 26.9-96.3 38.8-147 35.6-60.3-3.7-120.1-28.8-166.6-75.3-46.1-46.2-70.7-105.5-74.8-166.2l146.1 146.1 273.9-273.9-146.1-146.1c60.7 4.1 120.1 28.8 166.2 74.9 46.5 46.5 71.6 106.3 75.3 166.6z" p-id="3422"></path></svg>