<?xml version="1.0" standalone="no"?><!DOCTYPE svg PUBLIC "-//W3C//DTD SVG 1.1//EN" "http://www.w3.org/Graphics/SVG/1.1/DTD/svg11.dtd"><svg t="1531366674877" class="icon" style="" viewBox="0 0 1024 1024" version="1.1" xmlns="http://www.w3.org/2000/svg" p-id="4153" xmlns:xlink="http://www.w3.org/1999/xlink" width="200" height="200"><defs><style type="text/css"></style></defs><path d="M598.856695 128.745223 424.729889 128.745223c-21.364587 0-38.435381 18.590404-38.435381 41.566698 0 23.026436 17.111726 41.668005 38.435381 41.668005l175.198208 0c20.282952 0 37.384445-18.641569 37.384445-41.668005C637.323798 147.33665 620.230492 128.745223 598.856695 128.745223L598.856695 128.745223 598.856695 128.745223zM699.85497 170.515558c0 54.140061-9.942443 83.540671-62.654992 83.540671L386.578987 254.05623c-52.478212 0-62.654992-38.70144-62.654992-83.540671l-83.541695 0c-35.18229 0-62.654992 25.749454-62.654992 62.656015l0 563.897997c0 41.402969 22.537296 62.656015 62.654992 62.656015l543.013341 0c33.469276 0 62.656015-20.405749 62.656015-62.656015L846.051657 233.171574c0-40.761356-23.333428-62.656015-62.656015-62.656015L699.85497 170.515558zM679.378613 692.561355 348.562139 692.561355c-12.186554 0-24.352641-12.512988-24.352641-22.720468 0-10.177803 10.299577-18.896372 22.496363-18.896372l329.857637 0c12.186554 0 22.487154 7.922437 23.414269 18.896372C699.977767 680.059624 691.565167 692.561355 679.378613 692.561355L679.378613 692.561355 679.378613 692.561355zM674.993746 546.202986l-331.367013 0c-12.217253 0-19.98824-10.963703-19.98824-21.181415 0-10.207479 10.320043-20.426215 22.527063-20.426215l330.419432 0c12.216229 0 22.536272 9.463536 23.455201 20.426215C700.040189 535.239284 687.179276 546.202986 674.993746 546.202986L674.993746 546.202986 674.993746 546.202986zM674.993746 400.058488l-331.367013 0c-12.217253 0-19.98824-10.961656-19.98824-21.170159 0-10.218736 10.320043-20.436448 22.527063-20.436448l330.419432 0c12.216229 0 22.536272 9.463536 23.455201 20.436448C700.040189 389.095809 687.179276 400.058488 674.993746 400.058488L674.993746 400.058488 674.993746 400.058488zM674.993746 400.058488" p-id="4154"></path></svg>