<?xml version="1.0" standalone="no"?><!DOCTYPE svg PUBLIC "-//W3C//DTD SVG 1.1//EN" "http://www.w3.org/Graphics/SVG/1.1/DTD/svg11.dtd"><svg t="1531366483187" class="icon" style="" viewBox="0 0 1024 1024" version="1.1" xmlns="http://www.w3.org/2000/svg" p-id="1896" xmlns:xlink="http://www.w3.org/1999/xlink" width="200" height="200"><defs><style type="text/css"></style></defs><path d="M95.699627 276.2752c34.809173 11.65312 69.297493 24.4224 104.546986 34.51904 19.8144 5.655893 39.502507 0.570027 57.381547-10.755413 36.38272-23.036587 73.949867-43.874987 114.612907-58.54208 34.904747-12.5952 68.027733-9.444693 99.034453 11.431253 3.904853 2.63168 7.246507 6.12352 11.554133 9.833813-17.53088 9.721173-34.194773 18.609493-50.490026 28.13952-19.626667 11.461973-39.246507 22.951253-58.289494 35.31776-34.816 22.644053-48.349867 61.713067-34.955946 98.85696 12.47232 34.635093 50.131627 59.661653 83.33312 54.275414 11.031893-1.819307 22.002347-5.62176 32.341333-10.110294 26.53184-11.506347 52.64384-23.924053 78.957227-35.945813 25.463467-11.64288 45.69088-7.891627 65.696426 12.06272 51.141973 51.053227 102.253227 102.140587 153.45664 153.166507 15.4624 15.42144 16.39424 38.26688 1.942187 53.070506-14.677333 15.039147-37.51936 14.260907-53.650773-1.716906-16.523947-16.397653-33.000107-32.846507-49.8688-48.878934-3.351893-3.252907-6.987093-10.359467-12.88192-4.973226-1.23904 1.184427 1.877333 9.30816 4.846933 12.547413 15.465813 17.01888 31.464107 33.542827 47.40096 50.13504 19.090773 19.831467 15.117653 49.506987-8.236373 60.79488-14.841173 7.19872-31.389013 3.28704-44.315307-9.649493a6051.16416 6051.16416 0 0 0-61.42976-60.279467c-2.64192-2.587307-6.294187-4.212053-10.458453-6.946133-1.805653 9.20576 3.26656 13.53728 7.181653 17.814186 15.233707 16.49664 30.784853 32.699733 46.308693 48.923307 6.997333 7.263573 11.793067 15.336107 12.076374 25.716053 0.385707 15.674027-7.819947 28.900693-21.794134 34.880854-14.209707 6.099627-29.7984 2.577067-40.88832-8.864427a9837.011627 9837.011627 0 0 0-53.026133-53.77024c-2.853547-2.850133-5.850453-5.710507-9.25696-7.81312-1.880747-1.170773-4.683093-0.774827-7.072427-1.08544 0.034133 2.450773-0.69632 5.30432 0.283307 7.30112 1.518933 3.089067 4.031147 5.76512 6.4512 8.31488 13.769387 14.475947 27.982507 28.63104 41.499307 43.4176a35.84 35.84 0 0 1 2.53952 45.581653c-12.36992 16.86528-36.437333 19.950933-52.329814 6.16448-7.10656-6.198613-13.43488-13.349547-19.759786-20.394666-1.283413-1.440427-1.45408-4.399787-1.242454-6.539947 3.792213-39.676587-16.319147-72.942933-52.783786-87.835307-2.942293-1.16736-5.915307-4.54656-6.98368-7.615146-8.553813-24.367787-24.29952-41.693867-48.226987-51.7632-2.935467-1.245867-5.87776-4.584107-7.051947-7.58784-8.751787-22.715733-24.036693-38.734507-46.5408-48.141654-2.99008-1.24928-6.232747-4.416853-7.294293-7.427413-15.438507-43.031893-58.69568-61.781333-102.1952-51.428693-30.53568 7.263573-51.725653 25.862827-63.819093 54.838613a15.629653 15.629653 0 0 1-1.1264 2.136747c-0.293547 0.436907-0.689493 0.826027-1.45408 1.641813-14.52032-5.03808-29.279573-10.151253-44.018347-15.301973-0.006827-95.849813-0.006827-191.689387-0.003413-287.515307z m831.740586 279.374507c-29.02016 5.28384-57.879893 11.209387-87.005866 15.510186-20.432213 3.044693-38.11328-3.9424-53.03296-18.742613-55.92064-55.473493-112.14848-110.626133-168.072534-166.079147-17.022293-16.878933-37.021013-20.886187-58.026666-11.15136-32.06144 14.892373-63.25248 31.744-94.798507 47.8208-9.629013 4.891307-19.131733 10.079573-28.78464 14.933334-23.43936 11.78624-51.029333 2.955947-63.348053-20.176214-12.032-22.54848-3.91168-50.527573 18.619733-63.24224 65.911467-37.218987 131.88096-74.32192 197.829973-111.4624 0.238933-0.139947 0.467627-0.252587 0.69632-0.4096 28.20096-18.41152 54.613333-14.854827 79.639894 6.341974 28.071253 23.801173 56.261973 47.469227 84.268373 71.345493 13.74208 11.738453 29.279573 15.517013 46.77632 11.707733 39.36256-8.564053 78.677333-17.210027 118.016-25.767253 2.33472-0.508587 4.785493-0.525653 7.222613-0.785067v250.156374z m-584.48896 207.670613c-8.246613 2.187947-15.172267 4.498773-22.24128 5.771947-11.403947 2.116267-22.801067 2.464427-32.351573-5.80608-10.57792-9.18528-14.516907-20.55168-10.12736-34.256214 2.112853-6.5536 4.352-13.114027 6.915413-20.84864-8.441173 2.157227-15.616 4.22912-22.8864 5.70368-26.118827 5.379413-46.1312-17.145173-37.727573-42.36288 1.959253-5.89824 4.11648-11.677013 6.724267-19.094186-5.133653 1.283413-9.219413 1.983147-13.069654 3.345066-37.0176 12.980907-55.6032-17.793707-49.38752-44.977493 6.140587-26.90048 28.47744-50.21696 54.084267-53.879467 29.740373-4.263253 53.97504 20.217173 49.227093 49.739094-0.331093 2.106027-0.68608 4.21888-1.221973 7.53664 16.489813-2.300587 31.802027-1.01376 43.946667 11.093333 12.376747 12.332373 13.032107 27.692373 10.25024 44.544 17.57184-1.631573 33.778347-0.41984 45.755733 13.748907 11.758933 13.94688 12.168533 29.887147 7.17824 46.98112 6.464853-0.617813 12.035413-1.757867 17.575253-1.600854 29.528747 0.774827 48.595627 27.490987 40.779094 56.814934-8.318293 31.167147-52.435627 53.691733-82.44224 42.06592-17.466027-6.76864-25.729707-23.3472-20.066987-41.352534 2.341547-7.430827 5.67296-14.533973 9.086293-23.159466v-0.006827z" p-id="1897"></path></svg>